<svg width="169" height="169" viewBox="0 0 169 169" fill="none" xmlns="http://www.w3.org/2000/svg">
<path d="M147.411 109.856C134.259 107.502 143.235 101.313 153.387 98.9356C163.532 96.5587 159.644 83.8705 148.971 87.0591C138.295 90.2391 127.582 100.911 122.068 98.1213C117.659 95.8946 110.309 92.1859 107.547 90.788C108.256 88.8009 108.636 86.6868 108.636 84.5003C108.636 82.3139 108.256 80.1997 107.547 78.2153C110.309 76.8204 117.658 73.1057 122.068 70.879C127.582 68.0948 138.295 78.7639 148.971 81.9468C159.644 85.1298 163.532 72.4413 153.387 70.0644C143.235 67.6871 134.259 61.5035 147.411 59.1434C160.559 56.7952 172.373 48.6964 168.116 42.25C163.859 35.8032 149.948 40.7075 141.037 49.4969C132.143 58.2829 130.51 48.3848 133.226 39.5064C135.942 30.6246 121.454 27.2311 119.266 36.9126C117.071 46.5945 122.276 60.0564 116.764 62.838C112.345 65.0706 104.992 68.7853 102.233 70.1802C98.9757 67.0841 94.669 64.8511 89.8045 63.8922C89.8045 61.108 89.8045 53.6733 89.8045 49.214C89.8045 43.6452 105.715 40.8581 114.21 34.3592C122.695 27.8606 112.088 18.5722 104.656 25.0704C97.2269 31.5749 86.6232 35.2863 90.8673 24.1406C95.1084 13.0001 93.0061 0 84.4949 0C75.9901 0 73.8848 13.0001 78.1286 24.1403C82.3727 35.286 71.769 31.5746 64.3436 25.0701C56.9114 18.5715 46.3043 27.8602 54.7895 34.3588C63.2812 40.8577 79.1944 43.6449 79.1944 49.2137C79.1944 53.673 79.1944 61.1077 79.1944 63.8919C74.3299 64.8508 70.0198 67.0834 66.7657 70.1799C64.0068 68.785 56.6538 65.0703 52.2347 62.8376C46.7234 60.0564 51.9179 46.5942 49.7334 36.9123C47.5452 27.2308 33.0538 30.6243 35.7734 39.5061C38.4863 48.3845 36.8657 58.2829 27.9618 49.4965C19.0516 40.7075 5.14102 35.8032 0.88371 42.25C-3.3736 48.6968 8.44112 56.7956 21.5891 59.1434C34.734 61.5035 25.7574 67.6871 15.6093 70.0644C5.47103 72.4413 9.35194 85.1298 20.025 81.9468C30.7015 78.7639 41.4172 68.0948 46.9285 70.879C51.3412 73.1057 58.6904 76.8204 61.4463 78.2153C60.7399 80.1997 60.3639 82.3136 60.3639 84.5003C60.3639 86.6868 60.7399 88.8009 61.4463 90.788C58.6908 92.1862 51.3412 95.8946 46.9285 98.1213C41.4172 100.911 30.7011 90.2394 20.025 87.0591C9.35194 83.8705 5.47103 96.5587 15.6093 98.9356C25.7574 101.313 34.7404 107.502 21.5891 109.856C8.44112 112.205 -3.37398 120.303 0.88371 126.75C5.14102 133.2 19.0516 128.292 27.9622 119.503C36.8661 110.717 38.4863 120.615 35.7738 129.494C33.0545 138.375 47.5459 141.769 49.7338 132.088C51.9183 122.409 46.7237 108.952 52.2351 106.162C56.6542 103.93 64.0072 100.215 66.7661 98.8231C70.0201 101.919 74.3302 104.149 79.1948 105.108C79.1948 107.892 79.1948 115.327 79.1948 119.786C79.1948 125.355 63.2812 128.142 54.7899 134.641C46.3047 141.14 56.9118 150.428 64.344 143.93C71.7694 137.425 82.3731 133.714 78.1289 144.86C73.8848 156.003 75.9905 169 84.4953 169C93.0065 169 95.1088 156.003 90.8681 144.86C86.624 133.714 97.2276 137.425 104.656 143.93C112.089 150.428 122.695 141.14 114.21 134.641C105.716 128.142 89.8052 125.355 89.8052 119.786C89.8052 115.327 89.8052 107.892 89.8052 105.108C94.6698 104.149 98.9765 101.92 102.234 98.8231C104.993 100.215 112.346 103.93 116.765 106.162C122.276 108.952 117.072 122.409 119.267 132.088C121.455 141.769 135.942 138.376 133.227 129.494C130.511 120.615 132.134 110.717 141.038 119.503C149.949 128.292 163.859 133.199 168.117 126.75C172.373 120.303 160.559 112.205 147.411 109.856ZM84.4949 96.4719C76.9473 96.4719 70.822 91.1141 70.822 84.5C70.822 77.8885 76.9473 72.5307 84.4949 72.5307C92.0523 72.5307 98.1743 77.8885 98.1743 84.5C98.1743 91.1141 92.0523 96.4719 84.4949 96.4719Z" fill="#84E1FF" fill-opacity="0.4"/>
</svg>
