<svg width="420" height="405" viewBox="0 0 420 405" fill="none" xmlns="http://www.w3.org/2000/svg">
<g opacity="0.25">
<mask id="mask0_19_1121" style="mask-type:luminance" maskUnits="userSpaceOnUse" x="0" y="0" width="420" height="405">
<path d="M420 0H0V404.922H420V0Z" fill="white"/>
</mask>
<g mask="url(#mask0_19_1121)">
<path d="M418.865 211.678C418.865 239.533 413.517 266.107 403.769 290.394C386.905 332.611 356.892 368.058 318.809 391.522C356.573 356.576 380.239 306.402 380.239 250.647C380.239 145.083 295.46 59.5524 190.868 59.5524C92.5779 59.5524 11.833 135.021 2.403 231.666C1.76829 225.08 1.45093 218.402 1.45093 211.678C1.45093 145.998 31.2825 87.3613 77.9795 48.7124C113.977 18.9824 159.994 1.14441 210.136 1.14441C325.428 1.14441 418.865 95.4111 418.865 211.678Z" fill="#ACA2F3"/>
<path d="M350.182 235.736C350.182 328.539 275.603 403.78 183.615 403.78C169.152 403.78 155.143 401.902 141.769 398.38C100.149 387.543 64.8775 360.877 42.5718 325.108C70.0005 355.569 109.579 374.687 153.601 374.687C236.432 374.687 303.576 306.95 303.576 223.386C303.576 139.822 236.432 72.0837 153.601 72.0837C150.519 72.0837 147.481 72.1751 144.489 72.3581C157.047 69.2938 170.149 67.6929 183.615 67.6929C231.581 67.6929 274.832 88.1379 305.253 120.932C333.135 150.982 350.182 191.324 350.182 235.736Z" fill="#F4EE6B"/>
<path d="M282.539 216.892C282.539 228.921 281.043 240.585 278.232 251.699C263.271 310.839 211.088 354.473 149.022 354.473C83.2835 354.473 28.6075 305.442 17.6359 240.951C16.2305 233.13 15.5505 225.079 15.5505 216.892C15.5505 194.709 20.6282 173.761 29.6955 155.237C26.114 166.946 24.2098 179.387 24.2098 192.285C24.2098 261.076 78.886 316.876 146.256 316.876C213.627 316.876 268.303 261.076 268.303 192.285C268.303 168.638 261.865 146.547 250.712 127.748C270.57 151.761 282.539 182.909 282.539 216.892Z" fill="#BEC0C2"/>
<path d="M282.539 216.892C282.539 228.921 281.043 240.585 278.232 251.699C254.339 300.639 206.01 334.12 150.291 334.12C90.5827 334.12 39.3976 295.699 17.6359 240.951C16.2305 233.13 15.5505 225.08 15.5505 216.892C15.5505 194.709 20.6282 173.761 29.6955 155.237C26.114 166.946 24.2098 179.387 24.2098 192.285C24.2098 261.076 78.886 316.876 146.256 316.876C213.627 316.876 268.303 261.076 268.303 192.285C268.303 168.638 261.865 146.547 250.712 127.748C270.57 151.761 282.539 182.909 282.539 216.892Z" fill="#E6E6E6"/>
<path d="M406.943 252.798C406.943 265.605 405.856 278.183 403.769 290.395C386.905 332.611 356.892 368.058 318.809 391.523C356.573 356.577 380.239 306.403 380.239 250.648C380.239 145.084 295.46 59.5531 190.868 59.5531C92.578 59.5531 11.8332 135.021 2.40312 231.667C1.76841 225.08 1.45105 218.402 1.45105 211.679C1.45105 145.999 31.2826 87.362 77.9796 48.7131C108.038 34.5799 141.678 26.6215 177.222 26.6215C304.119 26.6215 406.943 127.886 406.943 252.798Z" fill="#D2CCFE"/>
</g>
</g>
</svg>
