<svg width="107" height="40
" viewBox="0 0 163 61" fill="none" xmlns="http://www.w3.org/2000/svg">
<path d="M8.96193 58.7267L7.46045 53.7668H8.2561L9.32128 57.5643H9.37259L10.4249 53.7668H11.2334L12.2729 57.5514H12.3242L13.3894 53.7668H14.1851L12.6836 58.7267H11.9393L10.8613 54.9163H10.7843L9.70627 58.7267H8.96193ZM19.795 58.8301C19.3202 58.8301 18.9106 58.7244 18.5662 58.5138C18.224 58.3005 17.9598 58.0034 17.7738 57.6223C17.5898 57.2392 17.4979 56.7937 17.4979 56.2856C17.4979 55.7775 17.5898 55.3297 17.7738 54.9421C17.9598 54.5526 18.2186 54.2491 18.5502 54.0316C18.8839 53.8119 19.2731 53.7024 19.718 53.7024C19.9747 53.7024 20.2281 53.7452 20.4784 53.8316C20.7286 53.9176 20.9564 54.0574 21.1617 54.2514C21.3671 54.4427 21.5307 54.6969 21.6526 55.0133C21.7746 55.3297 21.8355 55.7191 21.8355 56.1821V56.505H18.0369V55.8465H21.0655C21.0655 55.5665 21.0099 55.3168 20.8987 55.097C20.7896 54.8777 20.6334 54.7045 20.4302 54.5772C20.2292 54.4503 19.9918 54.3866 19.718 54.3866C19.4164 54.3866 19.1555 54.462 18.9352 54.6128C18.717 54.7613 18.5491 54.9549 18.4315 55.194C18.3138 55.4331 18.255 55.6892 18.255 55.9628V56.4019C18.255 56.7762 18.3192 57.0937 18.4475 57.3544C18.578 57.6128 18.7587 57.8098 18.9897 57.9455C19.2207 58.0788 19.4891 58.1455 19.795 58.1455C19.9939 58.1455 20.1736 58.1175 20.334 58.0614C20.4966 58.0034 20.6366 57.9174 20.7543 57.803C20.8719 57.6871 20.9628 57.5427 21.027 57.3703L21.7585 57.5772C21.6815 57.8269 21.5521 58.0466 21.3703 58.2361C21.1885 58.4232 20.9639 58.5695 20.6965 58.6752C20.4292 58.7782 20.1287 58.8301 19.795 58.8301ZM27.1478 58.843C26.8356 58.843 26.5522 58.7839 26.2976 58.6653C26.0431 58.5449 25.841 58.3713 25.6913 58.1455C25.5416 57.9174 25.4667 57.6416 25.4667 57.3188C25.4667 57.0346 25.5223 56.8043 25.6335 56.6277C25.7447 56.4493 25.8934 56.3091 26.0795 56.2079C26.2656 56.1067 26.4709 56.0313 26.6955 55.9821C26.9222 55.9302 27.15 55.8893 27.3789 55.8593C27.6783 55.8207 27.9211 55.7915 28.1071 55.7722C28.2954 55.7506 28.4323 55.715 28.5178 55.6653C28.6055 55.6161 28.6494 55.5297 28.6494 55.4073V55.3812C28.6494 55.0629 28.5627 54.8151 28.3895 54.6386C28.2184 54.462 27.9585 54.3737 27.6098 54.3737C27.2484 54.3737 26.965 54.4537 26.7597 54.6128C26.5543 54.7719 26.4099 54.9421 26.3265 55.1232L25.6078 54.8648C25.7362 54.5632 25.9073 54.3287 26.1212 54.1608C26.3372 53.9907 26.5725 53.8721 26.827 53.8054C27.0837 53.7368 27.3361 53.7024 27.5842 53.7024C27.7425 53.7024 27.9243 53.7217 28.1296 53.7603C28.3371 53.7971 28.5371 53.8732 28.7295 53.9896C28.9242 54.1059 29.0857 54.2813 29.214 54.5158C29.3424 54.7507 29.4065 55.0648 29.4065 55.4589V58.7267H28.6494V58.055H28.6108C28.5595 58.1626 28.4739 58.2777 28.3542 58.4005C28.2344 58.5233 28.0751 58.6278 27.8761 58.7138C27.6772 58.7998 27.4345 58.843 27.1478 58.843ZM27.2633 58.1584C27.5628 58.1584 27.8152 58.0993 28.0205 57.9807C28.228 57.8625 28.3841 57.7094 28.4889 57.5222C28.5959 57.3351 28.6494 57.1381 28.6494 56.9312V56.2337C28.6172 56.2727 28.5467 56.3079 28.4376 56.3405C28.3307 56.3704 28.2066 56.3973 28.0654 56.4212C27.9264 56.4428 27.7906 56.4621 27.658 56.4792C27.5275 56.4943 27.4216 56.5072 27.3404 56.5178C27.1436 56.544 26.9596 56.5857 26.7885 56.644C26.6195 56.7001 26.4827 56.7849 26.3779 56.899C26.2752 57.0111 26.2239 57.1638 26.2239 57.3574C26.2239 57.6223 26.3212 57.8227 26.5158 57.9583C26.7126 58.0917 26.9618 58.1584 27.2633 58.1584ZM35.6421 53.7668V54.4128H33.0882V53.7668H35.6421ZM33.8325 52.5786H34.5897V57.3059C34.5897 57.5211 34.6207 57.6825 34.6828 57.7901C34.7469 57.8958 34.8282 57.9667 34.9266 58.0034C35.0271 58.0379 35.133 58.055 35.2442 58.055C35.3276 58.055 35.3961 58.0508 35.4495 58.0421C35.503 58.0315 35.5458 58.0228 35.5779 58.0163L35.7319 58.701C35.6805 58.7203 35.6089 58.7396 35.5169 58.7589C35.425 58.7805 35.3084 58.7911 35.1672 58.7911C34.9533 58.7911 34.7437 58.7449 34.5384 58.6525C34.3352 58.56 34.1662 58.4191 34.0315 58.2296C33.8989 58.0402 33.8325 57.8011 33.8325 57.5124V52.5786ZM40.3544 55.743V58.7267H39.5973V52.1133H40.3544V54.542H40.4187C40.5339 54.2855 40.7075 54.082 40.9382 53.9316C41.1716 53.7785 41.4814 53.7024 41.8688 53.7024C42.2046 53.7024 42.4986 53.7702 42.7512 53.9058C43.0034 54.0392 43.1992 54.2445 43.3381 54.5223C43.4792 54.7981 43.55 55.1489 43.55 55.5752V58.7267H42.7926V55.6267C42.7926 55.2327 42.6913 54.928 42.4881 54.7128C42.287 54.4954 42.0077 54.3866 41.6505 54.3866C41.4024 54.3866 41.1799 54.4397 40.9834 54.545C40.7888 54.6503 40.6344 54.8045 40.5211 55.0069C40.4101 55.2092 40.3544 55.4547 40.3544 55.743ZM49.7116 58.8301C49.2369 58.8301 48.8274 58.7244 48.4829 58.5138C48.1407 58.3005 47.8765 58.0034 47.6905 57.6223C47.5064 57.2392 47.4146 56.7937 47.4146 56.2856C47.4146 55.7775 47.5064 55.3297 47.6905 54.9421C47.8765 54.5526 48.1355 54.2491 48.4667 54.0316C48.8006 53.8119 49.1899 53.7024 49.6348 53.7024C49.8912 53.7024 50.1449 53.7452 50.3949 53.8316C50.6452 53.9176 50.873 54.0574 51.0785 54.2514C51.2837 54.4427 51.4474 54.6969 51.5694 55.0133C51.6913 55.3297 51.7523 55.7191 51.7523 56.1821V56.505H47.9536V55.8465H50.9821C50.9821 55.5665 50.9264 55.3168 50.8154 55.097C50.7062 54.8777 50.55 54.7045 50.3471 54.5772C50.146 54.4503 49.9085 54.3866 49.6348 54.3866C49.3329 54.3866 49.0721 54.462 48.8518 54.6128C48.6335 54.7613 48.4656 54.9549 48.3482 55.194C48.2303 55.4331 48.1716 55.6892 48.1716 55.9628V56.4019C48.1716 56.7762 48.236 57.0937 48.3643 57.3544C48.4946 57.6128 48.6753 57.8098 48.9064 57.9455C49.1376 58.0788 49.406 58.1455 49.7116 58.1455C49.9108 58.1455 50.0903 58.1175 50.2507 58.0614C50.4133 58.0034 50.5534 57.9174 50.6708 57.803C50.7886 57.6871 50.8794 57.5427 50.9437 57.3703L51.6752 57.5772C51.598 57.8269 51.4689 58.0466 51.287 58.2361C51.1052 58.4232 50.8805 58.5695 50.6132 58.6752C50.3459 58.7782 50.0452 58.8301 49.7116 58.8301ZM55.6143 58.7267V53.7668H56.3457V54.5158H56.3973C56.4869 54.2707 56.6495 54.0714 56.8848 53.9187C57.12 53.7656 57.3854 53.6895 57.6806 53.6895C57.7363 53.6895 57.8055 53.6902 57.8891 53.6925C57.9723 53.6948 58.0355 53.6978 58.0785 53.7024V54.4772C58.0525 54.4707 57.9938 54.4609 57.9019 54.448C57.8119 54.4332 57.7167 54.4256 57.6162 54.4256C57.3768 54.4256 57.163 54.476 56.9747 54.5772C56.7888 54.6765 56.6408 54.814 56.532 54.9906C56.4251 55.1648 56.3717 55.3641 56.3717 55.5881V58.7267H55.6143ZM68.7984 58.8173C68.3663 58.8173 67.9944 58.7373 67.6819 58.5782C67.3698 58.4187 67.1289 58.2004 66.9603 57.9227C66.7912 57.645 66.7065 57.3275 66.7065 56.9702C66.7065 56.6944 66.7645 56.45 66.8801 56.2371C66.9975 56.0219 67.159 55.8226 67.3642 55.6396C67.572 55.4547 67.8103 55.2694 68.0798 55.0841L69.0296 54.3737C69.2155 54.251 69.3642 54.1199 69.4753 53.9801C69.589 53.8399 69.6454 53.6569 69.6454 53.4311C69.6454 53.2632 69.5717 53.1007 69.4241 52.9435C69.2788 52.7862 69.0872 52.7078 68.8496 52.7078C68.6829 52.7078 68.5353 52.7506 68.4069 52.837C68.2808 52.9207 68.1814 53.0283 68.1088 53.1598C68.038 53.289 68.0026 53.4224 68.0026 53.5603C68.0026 53.7152 68.0444 53.8725 68.128 54.0316C68.2134 54.1888 68.3215 54.3502 68.4521 54.5158C68.5846 54.6795 68.7216 54.8473 68.8628 55.0197L71.8785 58.7267H70.9671L68.4777 55.7044C68.2466 55.4244 68.0369 55.1705 67.8487 54.9421C67.6604 54.714 67.511 54.4889 67.3996 54.2673C67.2885 54.0456 67.2328 53.8054 67.2328 53.5474C67.2328 53.25 67.2979 52.9897 67.4286 52.7658C67.5611 52.5396 67.7463 52.3642 67.9834 52.2395C68.2232 52.1126 68.5033 52.0489 68.824 52.0489C69.1534 52.0489 69.4369 52.1133 69.6744 52.2425C69.9116 52.3698 70.0945 52.5388 70.2229 52.7495C70.3513 52.9586 70.4156 53.1856 70.4156 53.4311C70.4156 53.7474 70.3373 54.0218 70.1811 54.2544C70.0253 54.487 69.8122 54.7034 69.5427 54.9034L68.2338 55.8851C67.9386 56.1049 67.7388 56.3178 67.6337 56.5247C67.5291 56.7311 67.4768 56.8797 67.4768 56.9702C67.4768 57.1767 67.5302 57.3696 67.6371 57.548C67.744 57.7268 67.895 57.8708 68.0896 57.9807C68.2842 58.0906 68.512 58.1455 68.7728 58.1455C69.0209 58.1455 69.2626 58.0928 69.4979 57.9871C69.7331 57.8795 69.9458 57.7246 70.1363 57.5222C70.3287 57.3199 70.4808 57.0767 70.5918 56.7925C70.7051 56.5084 70.762 56.1886 70.762 55.8336H71.4934C71.4934 56.2727 71.4433 56.6311 71.3428 56.9088C71.2423 57.1866 71.1286 57.404 71.0025 57.5609C70.8764 57.7181 70.7748 57.8356 70.698 57.9129C70.672 57.9451 70.6487 57.9777 70.6272 58.0099C70.6057 58.0421 70.5824 58.0743 70.5568 58.1069C70.3449 58.3456 70.0776 58.5244 69.7546 58.6426C69.4316 58.7589 69.1128 58.8173 68.7984 58.8173ZM82.8729 53.7668V54.4128H80.2163V53.7668H82.8729ZM81.0121 58.7267V53.0821C81.0121 52.798 81.0784 52.5612 81.2109 52.3717C81.3438 52.1823 81.5158 52.0402 81.7274 51.9455C81.9393 51.8508 82.1629 51.8034 82.3982 51.8034C82.5842 51.8034 82.7359 51.8186 82.8537 51.8489C82.9712 51.8788 83.0589 51.9068 83.1168 51.9326L82.8985 52.5915C82.8601 52.5786 82.8067 52.5623 82.7381 52.543C82.6719 52.5237 82.5842 52.5138 82.475 52.5138C82.2247 52.5138 82.044 52.5775 81.9329 52.7044C81.8238 52.8313 81.7692 53.0177 81.7692 53.2632V58.7267H81.0121ZM88.4435 58.8301C87.9986 58.8301 87.6082 58.7233 87.2724 58.5104C86.9389 58.2971 86.678 57.9993 86.4898 57.6158C86.3034 57.2328 86.2105 56.7849 86.2105 56.2727C86.2105 55.7559 86.3034 55.305 86.4898 54.9197C86.678 54.5344 86.9389 54.2351 87.2724 54.0218C87.6082 53.8088 87.9986 53.7024 88.4435 53.7024C88.8885 53.7024 89.2777 53.8088 89.6112 54.0218C89.947 54.2351 90.2083 54.5344 90.3942 54.9197C90.5825 55.305 90.6766 55.7559 90.6766 56.2727C90.6766 56.7849 90.5825 57.2328 90.3942 57.6158C90.2083 57.9993 89.947 58.2971 89.6112 58.5104C89.2777 58.7233 88.8885 58.8301 88.4435 58.8301ZM88.4435 58.1455C88.7816 58.1455 89.0594 58.0584 89.2777 57.8841C89.4957 57.7094 89.6572 57.4802 89.7622 57.196C89.8668 56.9119 89.9192 56.6042 89.9192 56.2727C89.9192 55.9412 89.8668 55.632 89.7622 55.3459C89.6572 55.0595 89.4957 54.828 89.2777 54.6515C89.0594 54.4749 88.7816 54.3866 88.4435 54.3866C88.1055 54.3866 87.8277 54.4749 87.6093 54.6515C87.3914 54.828 87.2299 55.0595 87.1248 55.3459C87.0202 55.632 86.9679 55.9412 86.9679 56.2727C86.9679 56.6042 87.0202 56.9119 87.1248 57.196C87.2299 57.4802 87.3914 57.7094 87.6093 57.8841C87.8277 58.0584 88.1055 58.1455 88.4435 58.1455ZM94.5427 58.7267V53.7668H95.2741V54.5158H95.3257C95.4153 54.2707 95.5779 54.0714 95.8131 53.9187C96.0484 53.7656 96.3138 53.6895 96.6089 53.6895C96.6647 53.6895 96.7339 53.6902 96.8175 53.6925C96.9007 53.6948 96.9639 53.6978 97.0068 53.7024V54.4772C96.9809 54.4707 96.9221 54.4609 96.8303 54.448C96.7403 54.4332 96.6451 54.4256 96.5446 54.4256C96.3052 54.4256 96.0913 54.476 95.9031 54.5772C95.7168 54.6765 95.5692 54.814 95.4604 54.9906C95.3535 55.1648 95.3001 55.3641 95.3001 55.5881V58.7267H94.5427ZM102.531 58.8301C102.056 58.8301 101.647 58.7244 101.302 58.5138C100.96 58.3005 100.696 58.0034 100.51 57.6223C100.326 57.2392 100.234 56.7937 100.234 56.2856C100.234 55.7775 100.326 55.3297 100.51 54.9421C100.696 54.5526 100.955 54.2491 101.286 54.0316C101.62 53.8119 102.009 53.7024 102.454 53.7024C102.71 53.7024 102.964 53.7452 103.214 53.8316C103.464 53.9176 103.692 54.0574 103.898 54.2514C104.103 54.4427 104.267 54.6969 104.389 55.0133C104.51 55.3297 104.571 55.7191 104.571 56.1821V56.505H100.773V55.8465H103.801C103.801 55.5665 103.746 55.3168 103.635 55.097C103.525 54.8777 103.369 54.7045 103.166 54.5772C102.965 54.4503 102.728 54.3866 102.454 54.3866C102.152 54.3866 101.891 54.462 101.671 54.6128C101.453 54.7613 101.285 54.9549 101.167 55.194C101.049 55.4331 100.991 55.6892 100.991 55.9628V56.4019C100.991 56.7762 101.055 57.0937 101.183 57.3544C101.314 57.6128 101.494 57.8098 101.726 57.9455C101.956 58.0788 102.225 58.1455 102.531 58.1455C102.73 58.1455 102.909 58.1175 103.07 58.0614C103.232 58.0034 103.373 57.9174 103.49 57.803C103.608 57.6871 103.699 57.5427 103.763 57.3703L104.494 57.5772C104.417 57.8269 104.288 58.0466 104.106 58.2361C103.924 58.4232 103.7 58.5695 103.432 58.6752C103.165 58.7782 102.864 58.8301 102.531 58.8301ZM110.435 58.8301C109.973 58.8301 109.576 58.7203 109.242 58.5005C108.908 58.2811 108.652 57.9788 108.472 57.5935C108.292 57.2078 108.203 56.7679 108.203 56.2727C108.203 55.7688 108.294 55.3244 108.478 54.939C108.665 54.5514 108.923 54.2491 109.255 54.0316C109.588 53.8119 109.978 53.7024 110.423 53.7024C110.769 53.7024 111.081 53.7668 111.36 53.896C111.638 54.0252 111.865 54.2059 112.043 54.4385C112.22 54.6708 112.33 54.9421 112.373 55.2524H111.616C111.558 55.0262 111.43 54.8261 111.231 54.6515C111.034 54.4749 110.769 54.3866 110.435 54.3866C110.14 54.3866 109.882 54.4643 109.659 54.6193C109.439 54.7719 109.266 54.9887 109.143 55.2683C109.021 55.546 108.96 55.8722 108.96 56.2469C108.96 56.63 109.02 56.9638 109.139 57.2479C109.261 57.5321 109.432 57.7526 109.653 57.9098C109.875 58.0671 110.136 58.1455 110.435 58.1455C110.632 58.1455 110.811 58.111 110.971 58.0421C111.132 57.9731 111.268 57.8742 111.379 57.745C111.49 57.6158 111.569 57.4609 111.616 57.2801H112.373C112.33 57.573 112.225 57.8367 112.056 58.0713C111.889 58.3039 111.667 58.4888 111.392 58.6267C111.118 58.7623 110.799 58.8301 110.435 58.8301ZM117.641 58.843C117.328 58.843 117.045 58.7839 116.79 58.6653C116.536 58.5449 116.334 58.3713 116.184 58.1455C116.035 57.9174 115.96 57.6416 115.96 57.3188C115.96 57.0346 116.015 56.8043 116.126 56.6277C116.237 56.4493 116.386 56.3091 116.572 56.2079C116.758 56.1067 116.964 56.0313 117.188 55.9821C117.415 55.9302 117.643 55.8893 117.872 55.8593C118.171 55.8207 118.414 55.7915 118.6 55.7722C118.788 55.7506 118.925 55.715 119.011 55.6653C119.098 55.6161 119.142 55.5297 119.142 55.4073V55.3812C119.142 55.0629 119.056 54.8151 118.882 54.6386C118.711 54.462 118.451 54.3737 118.103 54.3737C117.741 54.3737 117.458 54.4537 117.252 54.6128C117.047 54.7719 116.903 54.9421 116.819 55.1232L116.101 54.8648C116.229 54.5632 116.4 54.3287 116.614 54.1608C116.83 53.9907 117.065 53.8721 117.32 53.8054C117.576 53.7368 117.829 53.7024 118.077 53.7024C118.235 53.7024 118.417 53.7217 118.623 53.7603C118.83 53.7971 119.03 53.8732 119.222 53.9896C119.417 54.1059 119.578 54.2813 119.707 54.5158C119.835 54.7507 119.9 55.0648 119.9 55.4589V58.7267H119.142V58.055H119.104C119.053 58.1626 118.967 58.2777 118.847 58.4005C118.727 58.5233 118.568 58.6278 118.369 58.7138C118.17 58.7998 117.927 58.843 117.641 58.843ZM117.756 58.1584C118.056 58.1584 118.308 58.0993 118.513 57.9807C118.721 57.8625 118.877 57.7094 118.982 57.5222C119.089 57.3351 119.142 57.1381 119.142 56.9312V56.2337C119.11 56.2727 119.04 56.3079 118.931 56.3405C118.824 56.3704 118.699 56.3973 118.558 56.4212C118.419 56.4428 118.283 56.4621 118.151 56.4792C118.02 56.4943 117.915 56.5072 117.833 56.5178C117.636 56.544 117.453 56.5857 117.281 56.644C117.112 56.7001 116.976 56.7849 116.871 56.899C116.768 57.0111 116.717 57.1638 116.717 57.3574C116.717 57.6223 116.814 57.8227 117.009 57.9583C117.205 58.0917 117.455 58.1584 117.756 58.1584ZM127.483 54.8777L126.802 55.0713C126.759 54.9572 126.697 54.8466 126.613 54.7386C126.532 54.6291 126.421 54.5386 126.279 54.4677C126.138 54.3965 125.957 54.3609 125.737 54.3609C125.435 54.3609 125.184 54.431 124.983 54.5708C124.784 54.7087 124.685 54.8841 124.685 55.097C124.685 55.2865 124.753 55.4361 124.89 55.546C125.027 55.6559 125.241 55.7472 125.532 55.8207L126.263 56.0014C126.704 56.109 127.032 56.2738 127.248 56.4955C127.464 56.7148 127.572 56.9979 127.572 57.3446C127.572 57.6287 127.491 57.8829 127.328 58.1069C127.168 58.3308 126.944 58.507 126.655 58.6362C126.366 58.7654 126.03 58.8301 125.647 58.8301C125.144 58.8301 124.729 58.7203 124.399 58.5005C124.07 58.2811 123.861 57.9602 123.773 57.5385L124.492 57.3574C124.561 57.6245 124.69 57.8246 124.881 57.9583C125.073 58.0917 125.324 58.1584 125.634 58.1584C125.987 58.1584 126.267 58.083 126.475 57.9322C126.685 57.7795 126.79 57.5965 126.79 57.3836C126.79 57.2112 126.73 57.0668 126.61 56.9505C126.49 56.8323 126.306 56.744 126.058 56.6861L125.237 56.4921C124.785 56.3845 124.454 56.2178 124.242 55.9916C124.032 55.7635 123.927 55.4782 123.927 55.136C123.927 54.8561 124.006 54.6086 124.162 54.3931C124.32 54.1779 124.535 54.0089 124.807 53.8861C125.08 53.7637 125.391 53.7024 125.737 53.7024C126.225 53.7024 126.608 53.81 126.886 54.0252C127.166 54.2404 127.365 54.5245 127.483 54.8777ZM133.566 53.7668V54.4128H131.012V53.7668H133.566ZM131.756 52.5786H132.513V57.3059C132.513 57.5211 132.544 57.6825 132.606 57.7901C132.67 57.8958 132.752 57.9667 132.85 58.0034C132.951 58.0379 133.057 58.055 133.168 58.055C133.251 58.055 133.32 58.0508 133.373 58.0421C133.427 58.0315 133.469 58.0228 133.502 58.0163L133.655 58.701C133.604 58.7203 133.532 58.7396 133.441 58.7589C133.348 58.7805 133.232 58.7911 133.091 58.7911C132.877 58.7911 132.667 58.7449 132.462 58.6525C132.259 58.56 132.09 58.4191 131.955 58.2296C131.822 58.0402 131.756 57.8011 131.756 57.5124V52.5786ZM137.415 58.7267V53.7668H138.172V58.7267H137.415ZM137.8 52.9401C137.652 52.9401 137.525 52.8897 137.418 52.7885C137.313 52.6873 137.261 52.5657 137.261 52.4236C137.261 52.2816 137.313 52.1599 137.418 52.0588C137.525 51.9576 137.652 51.9068 137.8 51.9068C137.947 51.9068 138.074 51.9576 138.178 52.0588C138.285 52.1599 138.339 52.2816 138.339 52.4236C138.339 52.5657 138.285 52.6873 138.178 52.7885C138.074 52.8897 137.947 52.9401 137.8 52.9401ZM143.026 55.743V58.7267H142.269V53.7668H143.001V54.542H143.065C143.18 54.29 143.356 54.0877 143.591 53.9346C143.826 53.7797 144.13 53.7024 144.502 53.7024C144.836 53.7024 145.128 53.7709 145.378 53.9088C145.628 54.0445 145.823 54.2514 145.962 54.5287C146.101 54.8045 146.171 55.1531 146.171 55.5752V58.7267H145.413V55.6267C145.413 55.2372 145.313 54.9337 145.112 54.7162C144.911 54.4965 144.635 54.3866 144.284 54.3866C144.042 54.3866 143.826 54.4397 143.636 54.545C143.448 54.6503 143.299 54.8045 143.19 55.0069C143.081 55.2092 143.026 55.4547 143.026 55.743ZM152.254 60.6901C151.888 60.6901 151.573 60.6427 151.31 60.548C151.048 60.4552 150.828 60.3328 150.653 60.1797C150.48 60.0293 150.342 59.8675 150.239 59.6955L150.842 59.2693C150.911 59.3595 150.997 59.4629 151.102 59.5792C151.207 59.6974 151.35 59.7997 151.532 59.8861C151.716 59.9744 151.956 60.0183 152.254 60.0183C152.652 60.0183 152.98 59.9213 153.239 59.7277C153.497 59.5341 153.627 59.2306 153.627 58.8173V57.8098H153.563C153.507 57.9 153.428 58.0121 153.325 58.1455C153.225 58.2766 153.079 58.3941 152.889 58.4975C152.701 58.5987 152.446 58.649 152.125 58.649C151.727 58.649 151.371 58.5543 151.054 58.3649C150.739 58.1754 150.49 57.9 150.306 57.5385C150.125 57.1767 150.033 56.7376 150.033 56.2208C150.033 55.7127 150.122 55.2706 150.3 54.8939C150.477 54.5151 150.725 54.2222 151.041 54.0153C151.357 53.8066 151.723 53.7024 152.138 53.7024C152.459 53.7024 152.714 53.7562 152.902 53.8638C153.092 53.9691 153.238 54.0896 153.338 54.2252C153.441 54.359 153.52 54.4685 153.575 54.5548H153.653V53.7668H154.384V58.8688C154.384 59.295 154.288 59.6417 154.095 59.9084C153.905 60.1778 153.648 60.3745 153.325 60.4995C153.004 60.6264 152.647 60.6901 152.254 60.6901ZM152.228 57.9648C152.532 57.9648 152.789 57.8947 152.998 57.7549C153.208 57.6147 153.367 57.4135 153.476 57.1509C153.585 56.8884 153.64 56.5739 153.64 56.2079C153.64 55.8506 153.586 55.5354 153.479 55.2618C153.372 54.9887 153.214 54.7742 153.004 54.6193C152.795 54.4643 152.536 54.3866 152.228 54.3866C151.907 54.3866 151.64 54.4685 151.426 54.6321C151.214 54.7958 151.055 55.0156 150.948 55.291C150.843 55.5665 150.791 55.8722 150.791 56.2079C150.791 56.5523 150.844 56.8569 150.951 57.1218C151.06 57.3843 151.221 57.5912 151.432 57.742C151.646 57.8905 151.912 57.9648 152.228 57.9648Z" fill="black"/>
<mask id="mask0_5_149" style="mask-type:luminance" maskUnits="userSpaceOnUse" x="0" y="0" width="47" height="46">
<path d="M46.679 0H0V45.0032H46.679V0Z" fill="white"/>
</mask>
<g mask="url(#mask0_5_149)">
<path d="M46.5528 23.5259C46.5528 26.6217 45.9584 29.5751 44.875 32.2744C43.0006 36.9664 39.665 40.906 35.4324 43.5138C39.6296 39.6299 42.2598 34.0536 42.2598 27.8569C42.2598 16.1245 32.8374 6.61857 21.213 6.61857C10.289 6.61857 1.31501 15.0061 0.266947 25.7473C0.196404 25.0153 0.161133 24.2731 0.161133 23.5259C0.161133 16.2261 3.47663 9.70926 8.66655 5.4138C12.6673 2.10959 17.7816 0.127075 23.3545 0.127075C36.168 0.127075 46.5528 10.6039 46.5528 23.5259Z" fill="#ACA2F3"/>
<path d="M38.9192 26.1998C38.9192 36.514 30.6304 44.8763 20.4068 44.8763C18.7994 44.8763 17.2424 44.6675 15.756 44.2762C11.1304 43.0717 7.21027 40.1081 4.7312 36.1327C7.77964 39.5182 12.1785 41.6429 17.0711 41.6429C26.2769 41.6429 33.7393 34.1146 33.7393 24.8273C33.7393 15.5399 26.2769 8.01144 17.0711 8.01144C16.7285 8.01144 16.3909 8.02159 16.0583 8.04194C17.454 7.70136 18.9102 7.52344 20.4068 7.52344C25.7377 7.52344 30.5447 9.79571 33.9257 13.4405C37.0245 16.7803 38.9192 21.2638 38.9192 26.1998Z" fill="#F4EE6B"/>
<path d="M31.4015 24.1054C31.4015 25.4423 31.2352 26.7386 30.9228 27.9739C29.26 34.5467 23.4604 39.3961 16.5624 39.3961C9.25615 39.3961 3.17943 33.9468 1.96005 26.7793C1.80385 25.91 1.72827 25.0153 1.72827 24.1054C1.72827 21.64 2.29261 19.3118 3.30036 17.253C2.9023 18.5543 2.69067 19.937 2.69067 21.3706C2.69067 29.016 8.76741 35.2177 16.255 35.2177C23.7426 35.2177 29.8193 29.016 29.8193 21.3706C29.8193 18.7425 29.1038 16.2872 27.8643 14.1979C30.0712 16.8667 31.4015 20.3285 31.4015 24.1054Z" fill="#BEC0C2"/>
<path d="M31.4015 24.1054C31.4015 25.4423 31.2352 26.7386 30.9228 27.9739C28.2674 33.4131 22.8961 37.1341 16.7034 37.1341C10.0674 37.1341 4.37865 32.8641 1.96005 26.7793C1.80385 25.91 1.72827 25.0153 1.72827 24.1054C1.72827 21.64 2.29261 19.3118 3.30036 17.253C2.9023 18.5543 2.69067 19.937 2.69067 21.3706C2.69067 29.016 8.76741 35.2177 16.255 35.2177C23.7426 35.2177 29.8193 29.016 29.8193 21.3706C29.8193 18.7425 29.1038 16.2872 27.8643 14.1979C30.0712 16.8667 31.4015 20.3285 31.4015 24.1054Z" fill="#E6E6E6"/>
<path d="M45.2277 28.0958C45.2277 29.5192 45.1068 30.9171 44.875 32.2744C43.0006 36.9663 39.665 40.906 35.4324 43.5138C39.6296 39.6299 42.2598 34.0536 42.2598 27.8569C42.2598 16.1245 32.8374 6.61854 21.213 6.61854C10.289 6.61854 1.31501 15.0061 0.266947 25.7473C0.196404 25.0153 0.161133 24.2731 0.161133 23.5259C0.161133 16.2261 3.47663 9.70923 8.66655 5.41377C12.0072 3.843 15.746 2.9585 19.6964 2.9585C33.7998 2.9585 45.2277 14.2131 45.2277 28.0958Z" fill="#D2CCFE"/>
<path d="M36.5862 23.6225C36.5862 35.0296 27.4156 44.2815 16.1036 44.2815C15.9878 44.2815 15.8719 44.2815 15.756 44.2762C11.1304 43.0717 7.21027 40.1081 4.7312 36.1327C7.77964 39.5182 12.1785 41.6429 17.0711 41.6429C26.2769 41.6429 33.7393 34.1146 33.7393 24.8273C33.7393 15.5399 26.2769 8.01144 17.0711 8.01144C16.7285 8.01144 16.3909 8.02159 16.0583 8.04194C17.454 7.70136 18.9102 7.52344 20.4068 7.52344C25.7377 7.52344 30.5447 9.79571 33.9257 13.4405C35.6187 16.4448 36.5862 19.9218 36.5862 23.6225Z" fill="#FAF59C"/>
</g>
<path d="M54.0027 44.3292V17.8763H57.0312V27.6411H57.2879C57.5104 27.2967 57.8183 26.8576 58.2117 26.3237C58.6141 25.7812 59.1871 25.299 59.9317 24.877C60.6846 24.4465 61.7025 24.2312 62.9858 24.2312C64.6455 24.2312 66.1087 24.6488 67.3747 25.4841C68.6411 26.3194 69.6292 27.5034 70.3392 29.0361C71.0496 30.5689 71.4045 32.3772 71.4045 34.461C71.4045 36.5621 71.0496 38.3834 70.3392 39.9247C69.6292 41.4573 68.6452 42.6458 67.3875 43.4896C66.1298 44.325 64.6798 44.7425 63.0373 44.7425C61.771 44.7425 60.7572 44.5315 59.9957 44.1094C59.2341 43.679 58.648 43.1925 58.2377 42.65C57.827 42.0991 57.5104 41.6425 57.2879 41.2811H56.9284V44.3292H54.0027ZM56.98 34.4094C56.98 35.9077 57.1979 37.2295 57.6342 38.3747C58.0705 39.5113 58.7082 40.4025 59.5466 41.0484C60.3849 41.6857 61.4115 42.0044 62.6266 42.0044C63.8926 42.0044 64.9493 41.6683 65.7963 40.9969C66.6519 40.3164 67.2934 39.4037 67.7214 38.2584C68.1577 37.1046 68.3757 35.8216 68.3757 34.4094C68.3757 33.0144 68.1619 31.7572 67.7342 30.6378C67.3149 29.5097 66.6775 28.6185 65.8219 27.9641C64.9749 27.301 63.9099 26.9695 62.6266 26.9695C61.3945 26.9695 60.3593 27.2838 59.521 27.9124C58.6823 28.5324 58.0494 29.4021 57.6214 30.5215C57.1938 31.6323 56.98 32.9283 56.98 34.4094ZM91.4501 24.4896L84.1607 44.3292H81.0806L73.7916 24.4896H77.0768L82.5183 40.2994H82.7234L88.1649 24.4896H91.4501ZM95.4476 44.3292V24.4896H98.4765V44.3292H95.4476ZM96.9876 21.1829C96.3974 21.1829 95.8884 20.9806 95.4604 20.5759C95.0414 20.1711 94.8317 19.6846 94.8317 19.1163C94.8317 18.548 95.0414 18.0615 95.4604 17.6568C95.8884 17.252 96.3974 17.0497 96.9876 17.0497C97.5779 17.0497 98.0827 17.252 98.5021 17.6568C98.9297 18.0615 99.1435 18.548 99.1435 19.1163C99.1435 19.6846 98.9297 20.1711 98.5021 20.5759C98.0827 20.9806 97.5779 21.1829 96.9876 21.1829ZM112.031 44.7425C110.252 44.7425 108.69 44.3163 107.347 43.4638C106.012 42.6113 104.969 41.4186 104.216 39.886C103.471 38.3531 103.1 36.5621 103.1 34.5127C103.1 32.4461 103.471 30.6421 104.216 29.1007C104.969 27.5593 106.012 26.3624 107.347 25.5099C108.69 24.6574 110.252 24.2312 112.031 24.2312C113.811 24.2312 115.368 24.6574 116.703 25.5099C118.046 26.3624 119.09 27.5593 119.834 29.1007C120.587 30.6421 120.963 32.4461 120.963 34.5127C120.963 36.5621 120.587 38.3531 119.834 39.886C119.09 41.4186 118.046 42.6113 116.703 43.4638C115.368 44.3163 113.811 44.7425 112.031 44.7425ZM112.031 42.0044C113.383 42.0044 114.496 41.6554 115.368 40.9579C116.241 40.2604 116.887 39.3435 117.306 38.2068C117.725 37.0701 117.935 35.8388 117.935 34.5127C117.935 33.1866 117.725 31.9509 117.306 30.8057C116.887 29.6604 116.241 28.7347 115.368 28.0287C114.496 27.3225 113.383 26.9695 112.031 26.9695C110.68 26.9695 109.568 27.3225 108.695 28.0287C107.822 28.7347 107.176 29.6604 106.757 30.8057C106.338 31.9509 106.128 33.1866 106.128 34.5127C106.128 35.8388 106.338 37.0701 106.757 38.2068C107.176 39.3435 107.822 40.2604 108.695 40.9579C109.568 41.6554 110.68 42.0044 112.031 42.0044ZM138.009 36.2177V24.4896H141.038V44.3292H138.009V40.9708H137.804C137.342 41.9782 136.623 42.8353 135.648 43.5411C134.673 44.2386 133.441 44.5876 131.952 44.5876C130.72 44.5876 129.625 44.3163 128.666 43.7737C127.708 43.2228 126.956 42.3961 126.408 41.294C125.86 40.1831 125.587 38.7839 125.587 37.096V24.4896H128.615V36.8893C128.615 38.336 129.017 39.4897 129.822 40.3509C130.635 41.2121 131.67 41.6425 132.927 41.6425C133.68 41.6425 134.446 41.4489 135.224 41.0613C136.012 40.6737 136.67 40.0796 137.201 39.2787C137.74 38.4781 138.009 37.4576 138.009 36.2177ZM160.548 28.9328L157.827 29.7078C157.656 29.2514 157.404 28.8079 157.07 28.3774C156.745 27.9382 156.3 27.5766 155.735 27.2924C155.171 27.0083 154.448 26.8662 153.566 26.8662C152.36 26.8662 151.355 27.146 150.551 27.7057C149.755 28.2568 149.357 28.9586 149.357 29.8111C149.357 30.5689 149.631 31.1674 150.178 31.6065C150.726 32.0456 151.582 32.4116 152.745 32.7044L155.671 33.4277C157.434 33.8583 158.747 34.517 159.611 35.4039C160.475 36.2823 160.907 37.4146 160.907 38.8009C160.907 39.9376 160.582 40.9537 159.932 41.8494C159.29 42.7447 158.392 43.4509 157.237 43.9674C156.082 44.4841 154.739 44.7425 153.207 44.7425C151.197 44.7425 149.532 44.3034 148.215 43.4252C146.897 42.5465 146.063 41.2637 145.713 39.5761L148.587 38.8524C148.861 39.9205 149.378 40.7211 150.14 41.2549C150.91 41.7888 151.915 42.0559 153.156 42.0559C154.567 42.0559 155.688 41.7547 156.518 41.1519C157.357 40.5404 157.776 39.8084 157.776 38.9559C157.776 38.2671 157.536 37.6902 157.057 37.2251C156.578 36.7515 155.842 36.3985 154.85 36.166L151.564 35.391C149.759 34.9605 148.433 34.2931 147.586 33.389C146.748 32.4762 146.328 31.3352 146.328 29.9661C146.328 28.8467 146.641 27.8564 147.265 26.9953C147.899 26.1342 148.758 25.4583 149.845 24.9674C150.94 24.4766 152.181 24.2312 153.566 24.2312C155.517 24.2312 157.048 24.6618 158.161 25.5228C159.281 26.384 160.077 27.5206 160.548 28.9328Z" fill="black"/>
</svg>
