<svg width="55" height="53" viewBox="0 0 55 53" fill="none" xmlns="http://www.w3.org/2000/svg">
<g filter="url(#filter0_d_19_846)">
<path d="M50.3916 23.3988C50.3916 26.4946 49.7972 29.4481 48.7138 32.1473C46.8395 36.8393 43.5038 40.7789 39.2713 43.3868C43.4685 39.5028 46.0987 33.9265 46.0987 27.7299C46.0987 15.9974 36.6763 6.49149 25.0519 6.49149C14.1279 6.49149 5.15387 14.8791 4.10581 25.6203C4.03527 24.8883 4 24.1461 4 23.3988C4 16.0991 7.3155 9.58218 12.5054 5.28672C16.5062 1.98252 21.6205 0 27.1934 0C40.0069 0 50.3916 10.4768 50.3916 23.3988Z" fill="#ACA2F3"/>
<path d="M42.7583 26.0727C42.7583 36.3869 34.4695 44.7492 24.2459 44.7492C22.6385 44.7492 21.0815 44.5405 19.5951 44.1491C14.9695 42.9446 11.0494 39.981 8.57031 36.0056C11.6188 39.3911 16.0176 41.5159 20.9102 41.5159C30.116 41.5159 37.5784 33.9876 37.5784 24.7002C37.5784 15.4129 30.116 7.88436 20.9102 7.88436C20.5676 7.88436 20.23 7.89452 19.8974 7.91486C21.2932 7.57429 22.7494 7.39636 24.2459 7.39636C29.5768 7.39636 34.3838 9.66863 37.7648 13.3134C40.8637 16.6532 42.7583 21.1367 42.7583 26.0727Z" fill="#F4EE6B"/>
<path d="M35.2401 23.9783C35.2401 25.3153 35.0738 26.6115 34.7614 27.8468C33.0986 34.4196 27.299 39.2691 20.401 39.2691C13.0948 39.2691 7.01805 33.8198 5.79867 26.6522C5.64247 25.783 5.56689 24.8883 5.56689 23.9783C5.56689 21.5129 6.13123 19.1847 7.13898 17.1259C6.74092 18.4273 6.52929 19.81 6.52929 21.2435C6.52929 28.8889 12.606 35.0906 20.0936 35.0906C27.5812 35.0906 33.6579 28.8889 33.6579 21.2435C33.6579 18.6154 32.9424 16.1601 31.7029 14.0708C33.9099 16.7396 35.2401 20.2014 35.2401 23.9783Z" fill="#BEC0C2"/>
<path d="M35.2401 23.9783C35.2401 25.3153 35.0738 26.6115 34.7614 27.8468C32.106 33.286 26.7347 37.0071 20.5421 37.0071C13.906 37.0071 8.21727 32.737 5.79867 26.6522C5.64247 25.783 5.56689 24.8883 5.56689 23.9783C5.56689 21.5129 6.13123 19.1847 7.13898 17.1259C6.74092 18.4273 6.52929 19.81 6.52929 21.2435C6.52929 28.8889 12.606 35.0906 20.0936 35.0906C27.5812 35.0906 33.6579 28.8889 33.6579 21.2435C33.6579 18.6154 32.9424 16.1601 31.7029 14.0708C33.9099 16.7396 35.2401 20.2014 35.2401 23.9783Z" fill="#E6E6E6"/>
<path d="M49.0665 27.9688C49.0665 29.3921 48.9457 30.79 48.7138 32.1473C46.8395 36.8393 43.5038 40.7789 39.2713 43.3867C43.4685 39.5028 46.0987 33.9265 46.0987 27.7298C46.0987 15.9974 36.6763 6.49146 25.0519 6.49146C14.1279 6.49146 5.15387 14.879 4.10581 25.6202C4.03527 24.8882 4 24.146 4 23.3988C4 16.099 7.3155 9.58215 12.5054 5.28669C15.8461 3.71592 19.5849 2.83142 23.5353 2.83142C37.6387 2.83142 49.0665 14.086 49.0665 27.9688Z" fill="#D2CCFE"/>
<path d="M40.4253 23.4954C40.4253 34.9026 31.2548 44.1544 19.9427 44.1544C19.8269 44.1544 19.711 44.1544 19.5951 44.1491C14.9695 42.9446 11.0494 39.981 8.57031 36.0056C11.6188 39.3911 16.0176 41.5159 20.9102 41.5159C30.116 41.5159 37.5784 33.9876 37.5784 24.7002C37.5784 15.4129 30.116 7.88436 20.9102 7.88436C20.5676 7.88436 20.23 7.89452 19.8974 7.91486C21.2932 7.57429 22.7494 7.39636 24.2459 7.39636C29.5768 7.39636 34.3838 9.66863 37.7648 13.3134C39.4578 16.3177 40.4253 19.7947 40.4253 23.4954Z" fill="#FAF59C"/>
</g>
<defs>
<filter id="filter0_d_19_846" x="0" y="0" width="54.3916" height="52.7493" filterUnits="userSpaceOnUse" color-interpolation-filters="sRGB">
<feFlood flood-opacity="0" result="BackgroundImageFix"/>
<feColorMatrix in="SourceAlpha" type="matrix" values="0 0 0 0 0 0 0 0 0 0 0 0 0 0 0 0 0 0 127 0" result="hardAlpha"/>
<feOffset dy="4"/>
<feGaussianBlur stdDeviation="2"/>
<feComposite in2="hardAlpha" operator="out"/>
<feColorMatrix type="matrix" values="0 0 0 0 0 0 0 0 0 0 0 0 0 0 0 0 0 0 0.25 0"/>
<feBlend mode="normal" in2="BackgroundImageFix" result="effect1_dropShadow_19_846"/>
<feBlend mode="normal" in="SourceGraphic" in2="effect1_dropShadow_19_846" result="shape"/>
</filter>
</defs>
</svg>
