<svg width="169" height="169" viewBox="0 0 169 169" fill="none" xmlns="http://www.w3.org/2000/svg">
<path fill-rule="evenodd" clip-rule="evenodd" d="M84.5 36.974C58.2495 36.974 36.9688 58.2548 36.9688 84.5053C36.9688 110.756 58.2495 132.037 84.5 132.037C110.75 132.037 132.031 110.756 132.031 84.5053C132.031 58.2548 110.75 36.974 84.5 36.974ZM84.5 126.755C61.1648 126.755 42.25 107.838 42.25 84.5053C42.25 61.1727 61.1648 42.2553 84.5 42.2553C107.835 42.2553 126.75 61.1727 126.75 84.5053C126.75 107.838 107.835 126.755 84.5 126.755Z" fill="#F5EB1D" fill-opacity="0.2"/>
<path fill-rule="evenodd" clip-rule="evenodd" d="M84.5 52.8177C83.0397 52.8177 81.8594 53.9981 81.8594 55.4584C81.8594 56.9186 83.0397 58.099 84.5 58.099C99.0815 58.099 110.906 69.9211 110.906 84.5052C110.906 85.9655 112.087 87.1459 113.547 87.1459C115.007 87.1459 116.188 85.9655 116.188 84.5052C116.188 67.0058 101.999 52.8177 84.5 52.8177Z" fill="#F5EB1D" fill-opacity="0.2"/>
<path fill-rule="evenodd" clip-rule="evenodd" d="M166.359 81.8594H139.953C138.493 81.8594 137.312 83.0397 137.312 84.5C137.312 85.9603 138.493 87.1406 139.953 87.1406H166.359C167.82 87.1406 169 85.9603 169 84.5C169 83.0397 167.82 81.8594 166.359 81.8594Z" fill="#F5EB1D" fill-opacity="0.2"/>
<path fill-rule="evenodd" clip-rule="evenodd" d="M30.2541 96.3038L20.0534 99.0369C18.6433 99.4171 17.8062 100.864 18.1864 102.274C18.564 103.682 20.0085 104.519 21.4212 104.139L31.6219 101.406C33.0294 101.028 33.8665 99.5835 33.4889 98.1707C33.1112 96.7633 31.6615 95.9262 30.2541 96.3038Z" fill="#F5EB1D" fill-opacity="0.2"/>
<path fill-rule="evenodd" clip-rule="evenodd" d="M130.236 58.0936C130.967 59.3584 132.581 59.7915 133.845 59.0601L156.713 45.8569C157.978 45.1281 158.411 43.5121 157.677 42.2498C156.951 40.985 155.335 40.5546 154.073 41.286L131.205 54.4891C129.94 55.2206 129.51 56.8287 130.236 58.0936Z" fill="#F5EB1D" fill-opacity="0.2"/>
<path fill-rule="evenodd" clip-rule="evenodd" d="M47.156 121.847C46.1261 120.814 44.4546 120.819 43.4221 121.847L35.9544 129.314C34.922 130.347 34.9246 132.021 35.9571 133.051C36.9869 134.083 38.6558 134.081 39.6883 133.048L47.156 125.58C48.1885 124.553 48.1885 122.879 47.156 121.847Z" fill="#F5EB1D" fill-opacity="0.2"/>
<path fill-rule="evenodd" clip-rule="evenodd" d="M110.905 38.7647C112.17 39.4935 113.783 39.063 114.514 37.7982L127.718 14.9304C128.449 13.6655 128.016 12.0494 126.748 11.3206C125.486 10.5918 123.875 11.0249 123.144 12.2871L109.944 35.1576C109.209 36.4224 109.642 38.0332 110.905 38.7647Z" fill="#F5EB1D" fill-opacity="0.2"/>
<path fill-rule="evenodd" clip-rule="evenodd" d="M70.8308 135.512C69.426 135.134 67.9789 135.977 67.596 137.379L64.863 147.58C64.4853 148.992 65.3277 150.439 66.7352 150.817C68.1426 151.197 69.587 150.36 69.9646 148.947L72.6977 138.747C73.0806 137.344 72.2435 135.895 70.8308 135.512Z" fill="#F5EB1D" fill-opacity="0.2"/>
<path fill-rule="evenodd" clip-rule="evenodd" d="M84.5 31.6875C85.963 31.6875 87.1433 30.5098 87.1459 29.0469V2.64063C87.1459 1.18036 85.9656 0 84.5 0C83.0451 0 81.8647 1.18036 81.8621 2.64063L81.8647 29.0469C81.8647 30.5071 83.0451 31.6875 84.5 31.6875Z" fill="#F5EB1D" fill-opacity="0.2"/>
<path fill-rule="evenodd" clip-rule="evenodd" d="M101.406 137.379C101.033 135.974 99.5862 135.134 98.1708 135.512C96.7634 135.89 95.9316 137.339 96.3039 138.747L99.037 148.948C99.4172 150.36 100.867 151.192 102.277 150.814C103.687 150.437 104.519 148.995 104.139 147.58L101.406 137.379Z" fill="#F5EB1D" fill-opacity="0.2"/>
<path fill-rule="evenodd" clip-rule="evenodd" d="M54.4948 37.7928C55.2209 39.0577 56.837 39.4907 58.0939 38.7619C59.3614 38.0304 59.7971 36.4197 59.0657 35.1522L45.8626 12.2844C45.1338 11.0221 43.5177 10.5891 42.2502 11.3205C40.9906 12.0467 40.5576 13.6628 41.2864 14.925L54.4948 37.7928Z" fill="#F5EB1D" fill-opacity="0.2"/>
<path fill-rule="evenodd" clip-rule="evenodd" d="M125.582 121.843C124.558 120.814 122.884 120.814 121.849 121.843C120.816 122.873 120.824 124.547 121.849 125.577L129.316 133.045C130.351 134.08 132.023 134.072 133.053 133.042C134.085 132.012 134.085 130.346 133.05 129.311L125.582 121.843Z" fill="#F5EB1D" fill-opacity="0.2"/>
<path fill-rule="evenodd" clip-rule="evenodd" d="M12.29 45.8542L35.1631 59.0547C36.4226 59.7835 38.0361 59.3531 38.7622 58.0935C39.4937 56.8287 39.0659 55.2152 37.801 54.4838L14.9306 41.2807C13.6684 40.5492 12.0523 40.9823 11.3209 42.2498C10.5973 43.5094 11.0277 45.1254 12.29 45.8542Z" fill="#F5EB1D" fill-opacity="0.2"/>
<path fill-rule="evenodd" clip-rule="evenodd" d="M137.383 101.4L147.584 104.133C148.997 104.516 150.441 103.668 150.819 102.261C151.199 100.856 150.364 99.4114 148.952 99.0312L138.751 96.2981C137.349 95.9152 135.896 96.7549 135.516 98.165C135.136 99.5751 135.981 101.02 137.383 101.4Z" fill="#F5EB1D" fill-opacity="0.2"/>
<path fill-rule="evenodd" clip-rule="evenodd" d="M31.6875 84.5C31.6901 83.0371 30.5124 81.8594 29.0522 81.8541L2.64063 81.8594C1.183 81.8594 0 83.0345 0 84.5C0.00264063 85.955 1.183 87.1407 2.64327 87.1407L29.0522 87.1354C30.5071 87.1354 31.6901 85.9577 31.6875 84.5Z" fill="#F5EB1D" fill-opacity="0.2"/>
<path fill-rule="evenodd" clip-rule="evenodd" d="M138.75 72.6942L148.951 69.9611C150.364 69.5835 151.196 68.1312 150.815 66.7211C150.44 65.3189 148.999 64.4818 147.583 64.8594L137.383 67.5925C135.975 67.9648 135.138 69.4172 135.516 70.8273C135.888 72.2374 137.343 73.0665 138.75 72.6942Z" fill="#F5EB1D" fill-opacity="0.2"/>
<path fill-rule="evenodd" clip-rule="evenodd" d="M38.763 110.906C38.0368 109.639 36.4234 109.206 35.1586 109.934L12.2881 123.143C11.0259 123.872 10.5876 125.482 11.319 126.75C12.0505 128.009 13.6665 128.443 14.9287 127.714L37.7965 114.505C39.0561 113.779 39.4945 112.171 38.763 110.906Z" fill="#F5EB1D" fill-opacity="0.2"/>
<path fill-rule="evenodd" clip-rule="evenodd" d="M121.849 47.1512C122.876 48.1863 124.548 48.1757 125.583 47.1512L133.05 39.6835C134.085 38.6484 134.08 36.9795 133.045 35.947C132.021 34.9171 130.349 34.9145 129.317 35.9496L121.849 43.4173C120.814 44.4419 120.819 46.1213 121.849 47.1512Z" fill="#F5EB1D" fill-opacity="0.2"/>
<path fill-rule="evenodd" clip-rule="evenodd" d="M58.0945 130.236C56.8296 129.504 55.2215 129.937 54.4901 131.197L41.2869 154.073C40.5608 155.335 40.9833 156.946 42.2508 157.677C43.5156 158.401 45.129 157.968 45.8605 156.708L59.0583 133.835C59.7871 132.578 59.362 130.967 58.0945 130.236Z" fill="#F5EB1D" fill-opacity="0.2"/>
<path fill-rule="evenodd" clip-rule="evenodd" d="M98.1738 33.4834C99.576 33.8663 101.02 33.0187 101.409 31.6165L104.142 21.4158C104.519 20.003 103.677 18.556 102.269 18.181C100.867 17.8007 99.4175 18.6352 99.0399 20.0479L96.3069 30.2486C95.9187 31.6508 96.7664 33.1032 98.1738 33.4834Z" fill="#F5EB1D" fill-opacity="0.2"/>
<path fill-rule="evenodd" clip-rule="evenodd" d="M84.5 137.313C83.0397 137.307 81.8647 138.49 81.8594 139.948L81.8647 166.365C81.8647 167.817 83.0345 169 84.5 169C85.9603 169 87.1406 167.814 87.1433 166.359L87.1353 139.948C87.1353 138.493 85.9655 137.313 84.5 137.313Z" fill="#F5EB1D" fill-opacity="0.2"/>
<path fill-rule="evenodd" clip-rule="evenodd" d="M67.6006 31.6156C67.9677 33.0231 69.4253 33.8602 70.8354 33.4825C72.2402 33.1102 73.0694 31.6579 72.7023 30.2478L69.9693 20.047C69.5864 18.6343 68.1393 17.7999 66.7292 18.1828C65.3271 18.5577 64.4847 19.9995 64.8676 21.4149L67.6006 31.6156Z" fill="#F5EB1D" fill-opacity="0.2"/>
<path fill-rule="evenodd" clip-rule="evenodd" d="M114.506 131.205C113.78 129.943 112.174 129.504 110.907 130.241C109.642 130.965 109.214 132.578 109.937 133.843L123.151 156.713C123.877 157.976 125.483 158.414 126.75 157.68C128.015 156.948 128.446 155.332 127.719 154.07L114.506 131.205Z" fill="#F5EB1D" fill-opacity="0.2"/>
<path fill-rule="evenodd" clip-rule="evenodd" d="M43.4187 47.1511C44.4406 48.1915 46.12 48.181 47.1525 47.1511C48.185 46.1266 48.1744 44.4551 47.1525 43.4173L39.6848 35.9496C38.6471 34.9145 36.9782 34.9198 35.9484 35.9549C34.9185 36.9795 34.9132 38.651 35.951 39.6835L43.4187 47.1511Z" fill="#F5EB1D" fill-opacity="0.2"/>
<path fill-rule="evenodd" clip-rule="evenodd" d="M156.717 123.14L133.841 109.945C132.579 109.216 130.971 109.638 130.242 110.911C129.508 112.171 129.946 113.779 131.203 114.513L154.082 127.714C155.341 128.44 156.949 128.017 157.681 126.75C158.407 125.485 157.974 123.871 156.717 123.14Z" fill="#F5EB1D" fill-opacity="0.2"/>
<path fill-rule="evenodd" clip-rule="evenodd" d="M31.6176 67.5972L21.4142 64.8615C19.9988 64.4812 18.5544 65.3236 18.1795 66.731C17.7992 68.1332 18.631 69.5829 20.0464 69.9658L30.2471 72.6962C31.6493 73.0818 33.1016 72.2341 33.4819 70.8293C33.8648 69.4298 33.0198 67.9853 31.6176 67.5972Z" fill="#F5EB1D" fill-opacity="0.2"/>
</svg>
